# xmcd
#
# Track frame offsets:
#	150
#	11010
#	15336
#	24635
#	30676
#	36883
#	50549
#	53460
#	60880
#	76771
#
# Disc length: 1038 seconds
#
# Revision: 0
# Processed by: cddbd v1.5.2PL0 Copyright (c) Steve Scherf et al.
# Submitted via: audiograbber 1.83.01
#
DISCID=65040c0a
DTITLE=Missionswerk Mitternachtsruf - Stille Nacht
DYEAR=1900
DGENRE=
TTITLE0=Stille Nacht
TTITLE1=Ungefähr 1800 Jahre zuvor
TTITLE2=Die erste Strophe
TTITLE3=In der zweiten Strophe
TTITLE4=Im dritten Vers
TTITLE5=Strophe Vier
TTITLE6=Der fünfte Vers
TTITLE7=Und schliesslich besingt die sechste Strophe
TTITLE8=Silent Night
TTITLE9=Wenn Sie noch Fragen haben
EXTD=
EXTT0=
EXTT1=
EXTT2=
EXTT3=
EXTT4=
EXTT5=
EXTT6=
EXTT7=
EXTT8=
EXTT9=
PLAYORDER=
